<?xml version="1.0" encoding="UTF-8" standalone="no"?>
<svg
   xmlns:dc="http://purl.org/dc/elements/1.1/"
   xmlns:cc="http://creativecommons.org/ns#"
   xmlns:rdf="http://www.w3.org/1999/02/22-rdf-syntax-ns#"
   xmlns:svg="http://www.w3.org/2000/svg"
   xmlns="http://www.w3.org/2000/svg"
   xmlns:sodipodi="http://sodipodi.sourceforge.net/DTD/sodipodi-0.dtd"
   xmlns:inkscape="http://www.inkscape.org/namespaces/inkscape"
   width="178.36823mm"
   height="129.55795mm"
   viewBox="0 0 178.36823 129.55795"
   version="1.1"
   id="svg8"
   inkscape:version="1.0 (4035a4fb49, 2020-05-01)"
   sodipodi:docname="sembago-white.svg">
  <defs
     id="defs2" />
  <sodipodi:namedview
     id="base"
     pagecolor="#ffffff"
     bordercolor="#666666"
     borderopacity="1.0"
     inkscape:pageopacity="0.0"
     inkscape:pageshadow="2"
     inkscape:zoom="0.7"
     inkscape:cx="389.98922"
     inkscape:cy="336.24925"
     inkscape:document-units="mm"
     inkscape:current-layer="layer1"
     inkscape:document-rotation="0"
     showgrid="false"
     fit-margin-top="2"
     fit-margin-left="2"
     fit-margin-bottom="2"
     fit-margin-right="2"
     lock-margins="true"
     inkscape:window-width="1827"
     inkscape:window-height="1046"
     inkscape:window-x="82"
     inkscape:window-y="-11"
     inkscape:window-maximized="1" />
  <metadata
     id="metadata5">
    <rdf:RDF>
      <cc:Work
         rdf:about="">
        <dc:format>image/svg+xml</dc:format>
        <dc:type
           rdf:resource="http://purl.org/dc/dcmitype/StillImage" />
        <dc:title />
      </cc:Work>
    </rdf:RDF>
  </metadata>
  <g
     inkscape:label="Layer 1"
     inkscape:groupmode="layer"
     id="layer1"
     transform="translate(-17.372945,-55.410104)">
    <path
       transform="matrix(0.26458333,0,0,0.26458333,17.372945,55.410104)"
       d="M 158.95508 7.5605469 C 157.42199 7.569332 155.9116 7.6584472 154.47266 7.9238281 C 145.71609 9.538688 140.58969 17.630504 143.42383 26.083984 C 143.98659 27.762525 144.74863 29.378604 146.00195 30.662109 C 152.33606 37.148818 163.05545 35.443359 171.24023 35.443359 C 173.84718 35.443359 180.12037 34.283819 181.77539 36.646484 C 184.19476 40.101218 185.10675 45.1656 186.55859 49.09375 C 189.96537 58.311073 193.28599 67.596711 196.80078 76.78125 C 208.99277 108.63784 220.27526 140.8415 232.50977 172.71289 C 236.12868 182.13964 239.461 191.70417 242.97852 201.18164 C 244.94084 206.46803 246.41063 212.33017 250.64062 216.30469 C 255.16543 220.55579 260.50885 219.32051 266.00391 218.74609 C 274.3508 217.87336 282.64171 216.7861 290.96094 215.71094 C 294.35013 215.27304 297.72366 215.20917 301.09961 214.59961 C 307.48414 213.44689 314.14603 213.06966 320.59961 212.4375 C 329.19724 211.59482 337.73596 210.181 346.33594 209.31836 C 362.61674 207.68519 378.79616 205.10234 395.08203 203.46875 C 397.17812 203.25861 399.22149 202.60905 401.32227 202.40234 C 410.18042 201.53112 418.98679 200.15083 427.83984 199.2832 C 430.9713 198.97631 434.07283 198.42679 437.19922 198.11328 C 439.36976 197.89558 441.7055 198.01134 443.82812 197.45703 C 447.69311 196.44741 451.15878 194.49773 453.34766 191.04102 C 454.75349 188.82092 455.08308 186.12469 455.70508 183.63281 C 456.83485 179.10721 457.68731 174.52708 458.73242 169.98242 C 462.66914 152.86081 466.29745 135.6532 470.14062 118.50781 C 471.65368 111.75781 473.07017 104.96288 474.64453 98.228516 C 475.52036 94.483242 476.68689 90.731095 477.26758 86.919922 C 478.63985 77.915934 485.40798 64.883861 478.08594 56.916016 C 477.02053 55.756256 475.59191 54.697463 474.24609 53.882812 C 473.00599 53.132134 471.70277 53.092696 470.34766 52.703125 C 464.68214 51.075007 458.30139 51.822266 452.4082 51.822266 L 403.66211 51.822266 L 279.26172 51.822266 L 238.70508 51.822266 C 232.2546 51.822266 225.208 52.635827 218.81836 51.791016 C 215.48919 51.350761 214.5862 45.070239 213.58008 42.462891 C 211.33698 36.648847 209.13863 30.784659 207.02539 24.914062 C 205.70573 21.247656 204.54531 16.779233 202.22266 13.605469 C 197.86904 7.6567985 191.53452 7.7558594 184.88867 7.7558594 L 166.56055 7.7558594 C 164.1249 7.7558594 161.51023 7.5459051 158.95508 7.5605469 z M 216.96094 225.33789 C 216.00349 225.33068 215.05646 225.38606 214.13672 225.51953 C 207.9483 226.41728 202.19201 227.56732 196.97852 231.38672 C 190.1755 236.37093 185.04077 243.90118 183.49805 252.26758 C 181.18475 264.80975 186.28335 278.3201 196.58789 285.8457 C 204.10883 291.33841 213.27382 292.72261 222.32617 291.55273 C 241.31845 289.09786 253.51385 268.33923 248.74414 250.31641 C 245.67275 238.71208 236.88194 230.02179 225.44727 226.71289 C 222.80503 225.94836 219.83328 225.35951 216.96094 225.33789 z M 425.42578 226.58008 C 424.93912 226.5848 424.44748 226.61606 423.94141 226.68945 C 422.25948 226.93361 420.52921 226.79531 418.87109 227.17383 C 411.49327 228.85889 403.49059 233.55855 399.05664 239.79492 C 389.96257 252.58477 390.64057 271.45634 401.76172 282.89062 C 406.00537 287.25364 411.52851 289.98516 417.31055 291.60938 C 421.32372 292.73635 425.61093 293.26279 429.79102 292.72266 C 446.21102 290.60045 458.82835 277.12274 459.41992 260.45703 C 459.48644 258.57381 459.02803 256.83907 458.74805 254.99609 C 456.4792 240.07199 445.29974 227.9116 429.79102 226.89453 C 428.28741 226.79589 426.88575 226.5659 425.42578 226.58008 z M 319.14844 351.54492 L 319.14844 454.2793 L 335.625 454.2793 L 335.625 444.72461 C 338.48646 448.23216 341.99476 450.86339 346.14844 452.61719 C 350.39446 454.37096 355.05608 455.24805 360.13281 455.24805 C 367.33254 455.24805 373.74636 453.67936 379.37695 450.54102 C 385.09981 447.40267 389.57793 442.97093 392.80859 437.24805 C 396.03923 431.43287 397.6543 424.78718 397.6543 417.31055 C 397.6543 409.83389 396.03923 403.2346 392.80859 397.51172 C 389.57793 391.78886 385.09981 387.35905 379.37695 384.2207 C 373.74636 381.08233 367.33254 379.51172 360.13281 379.51172 C 355.33299 379.51172 350.90125 380.34243 346.83984 382.00391 C 342.87076 383.66539 339.41078 386.11309 336.45703 389.34375 L 336.45703 351.54492 L 319.14844 351.54492 z M 42.3125 379.51172 C 32.343628 379.51172 24.405529 381.63484 18.498047 385.88086 C 12.682871 390.03453 9.7734375 395.61961 9.7734375 402.63477 C 9.7734375 407.98842 11.158603 412.18833 13.927734 415.23438 C 16.789172 418.1881 20.112006 420.26489 23.896484 421.46484 C 27.773269 422.66482 32.75752 423.7254 38.849609 424.64844 C 44.664785 425.57147 48.864697 426.54128 51.449219 427.55664 C 54.126046 428.572 55.464844 430.37251 55.464844 432.95703 C 55.464844 438.40298 50.295123 441.125 39.957031 441.125 C 35.434116 441.125 30.818851 440.47975 26.111328 439.1875 C 21.496109 437.80293 17.528036 436.00242 14.205078 433.78711 L 7.5585938 446.94141 C 10.973855 449.34133 15.542755 451.32537 21.265625 452.89453 C 26.988497 454.46372 32.849824 455.24805 38.849609 455.24805 C 49.187698 455.24805 57.357636 453.17128 63.357422 449.01758 C 69.357205 444.86388 72.357422 439.32515 72.357422 432.40234 C 72.357422 427.14099 70.972256 423.08021 68.203125 420.21875 C 65.5263 417.35732 62.2962 415.3269 58.511719 414.12695 C 54.72724 412.927 49.880136 411.86447 43.972656 410.94141 C 38.065174 409.92607 33.681747 408.86547 30.820312 407.75781 C 28.051181 406.55784 26.666016 404.5738 26.666016 401.80469 C 26.666016 399.31247 27.958445 397.3265 30.542969 395.84961 C 33.219794 394.28045 37.097086 393.49609 42.173828 393.49609 C 50.019699 393.49609 57.080723 395.34299 63.357422 399.03516 L 70.003906 385.88086 C 66.773254 383.94247 62.617758 382.42015 57.541016 381.3125 C 52.464276 380.11253 47.389242 379.51172 42.3125 379.51172 z M 119.51758 379.51172 C 112.22553 379.51172 105.6726 381.12871 99.857422 384.35938 C 94.042246 387.59004 89.473349 392.11258 86.150391 397.92773 C 82.919736 403.65062 81.304688 410.1108 81.304688 417.31055 C 81.304688 424.60259 82.966104 431.1575 86.289062 436.97266 C 89.704324 442.69554 94.503104 447.1717 100.6875 450.40234 C 106.87189 453.63301 114.02565 455.24805 122.14844 455.24805 C 128.51744 455.24805 134.24162 454.23381 139.31836 452.20312 C 144.3951 450.17241 148.59501 447.17221 151.91797 443.20312 L 142.64062 432.54102 C 137.37928 437.89467 130.68724 440.57227 122.56445 440.57227 C 116.19545 440.57227 110.84221 439.00358 106.50391 435.86523 C 102.2579 432.63457 99.626676 428.29556 98.611328 422.84961 L 156.625 422.84961 C 156.80962 420.6343 156.90234 418.92651 156.90234 417.72656 C 156.90234 410.15758 155.2873 403.51192 152.05664 397.78906 C 148.91829 391.97388 144.48654 387.49772 138.76367 384.35938 C 133.13311 381.12871 126.71732 379.51172 119.51758 379.51172 z M 214.09766 379.51172 C 209.02092 379.51172 204.40565 380.38878 200.25195 382.14258 C 196.09826 383.89635 192.63632 386.43485 189.86719 389.75781 L 189.86719 380.34375 L 173.39062 380.34375 L 173.39062 454.2793 L 190.69727 454.2793 L 190.69727 416.75781 C 190.69727 409.55806 192.40505 404.06572 195.82031 400.28125 C 199.32788 396.49676 204.03588 394.60352 209.94336 394.60352 C 215.29701 394.60352 219.40419 396.26493 222.26562 399.58789 C 225.12706 402.81856 226.55859 407.66565 226.55859 414.12695 L 226.55859 454.2793 L 243.86523 454.2793 L 243.86523 416.75781 C 243.86523 409.65039 245.61939 404.20441 249.12695 400.41992 C 252.63452 396.54313 257.29615 394.60352 263.11133 394.60352 C 268.46498 394.60352 272.57216 396.26493 275.43359 399.58789 C 278.29503 402.81856 279.72656 407.66565 279.72656 414.12695 L 279.72656 454.2793 L 297.0332 454.2793 L 297.0332 411.91211 C 297.0332 401.11249 294.30924 393.03529 288.86328 387.68164 C 283.41732 382.23567 276.03368 379.51172 266.71094 379.51172 C 260.89576 379.51172 255.58889 380.62063 250.78906 382.83594 C 245.98923 384.95895 242.06558 387.95915 239.01953 391.83594 C 236.52731 387.77453 233.11174 384.72796 228.77344 382.69727 C 224.52744 380.57425 219.63592 379.51172 214.09766 379.51172 z M 441.23047 379.51172 C 435.13837 379.51172 429.3698 380.298 423.92383 381.86719 C 418.47788 383.43637 413.81624 385.69666 409.93945 388.65039 L 416.72461 401.25 C 419.49374 398.9424 422.86295 397.14188 426.83203 395.84961 C 430.89344 394.55736 435.0006 393.91211 439.1543 393.91211 C 445.24637 393.91211 449.81528 395.29727 452.86133 398.06641 C 455.99967 400.83554 457.56836 404.80362 457.56836 409.97266 L 457.56836 411.08008 L 438.46094 411.08008 C 427.84593 411.08008 420.04694 413.1105 415.0625 417.17188 C 410.17038 421.14096 407.72461 426.44978 407.72461 433.0957 C 407.72461 437.3417 408.83157 441.17261 411.04688 444.58789 C 413.35448 447.91083 416.58653 450.54012 420.74023 452.47852 C 424.89394 454.32461 429.7391 455.24805 435.27734 455.24805 C 440.81561 455.24805 445.5236 454.41734 449.40039 452.75586 C 453.36947 451.00208 456.4141 448.50996 458.53711 445.2793 L 458.53711 454.2793 L 474.875 454.2793 L 474.875 410.94141 C 474.875 400.41872 471.96752 392.57336 466.15234 387.4043 C 460.42946 382.14294 452.12236 379.51172 441.23047 379.51172 z M 529.18945 379.51172 C 522.17432 379.51172 515.80489 380.98961 510.08203 383.94336 C 504.45147 386.89711 499.9753 391.09702 496.65234 396.54297 C 493.42168 401.89662 491.80664 408.08057 491.80664 415.0957 C 491.80664 422.11083 493.42168 428.34114 496.65234 433.78711 C 499.9753 439.23306 504.45147 443.47934 510.08203 446.52539 C 515.80489 449.47914 522.17432 450.95703 529.18945 450.95703 C 534.26619 450.95703 538.92781 450.12632 543.17383 448.46484 C 547.41982 446.80336 551.01893 444.35566 553.97266 441.125 L 553.97266 445.00195 C 553.97266 452.57091 552.08134 458.20236 548.29688 461.89453 C 544.51238 465.5867 538.55833 467.43164 530.43555 467.43164 C 525.35881 467.43164 520.32819 466.60093 515.34375 464.93945 C 510.45163 463.37027 506.39082 461.24713 503.16016 458.57031 L 495.40625 471.58594 C 499.55995 475.00119 504.82242 477.58607 511.19141 479.33984 C 517.56041 481.18594 524.29684 482.10937 531.4043 482.10938 C 557.98796 482.10937 571.28125 469.09429 571.28125 443.06445 L 571.28125 380.34375 L 554.80469 380.34375 L 554.80469 390.17383 C 551.85096 386.57395 548.15913 383.89635 543.72852 382.14258 C 539.3902 380.38878 534.5431 379.51172 529.18945 379.51172 z M 627.12891 379.51172 C 619.65224 379.51172 612.91386 381.12871 606.91406 384.35938 C 600.91429 387.59004 596.20627 392.0662 592.79102 397.78906 C 589.46805 403.51192 587.80664 410.01848 587.80664 417.31055 C 587.80664 424.60259 589.46805 431.1575 592.79102 436.97266 C 596.20627 442.69554 600.91429 447.1717 606.91406 450.40234 C 612.91386 453.63301 619.65224 455.24805 627.12891 455.24805 C 634.69786 455.24805 641.48265 453.63301 647.48242 450.40234 C 653.48222 447.1717 658.14191 442.69554 661.46484 436.97266 C 664.88013 431.1575 666.58789 424.60259 666.58789 417.31055 C 666.58789 410.01848 664.88013 403.51192 661.46484 397.78906 C 658.14191 392.0662 653.48222 387.59004 647.48242 384.35938 C 641.48265 381.12871 634.69786 379.51172 627.12891 379.51172 z M 119.51758 393.35742 C 125.14815 393.35742 129.85615 395.01884 133.64062 398.3418 C 137.4251 401.66476 139.68734 406.00377 140.42578 411.35742 L 98.472656 411.35742 C 99.303394 405.91148 101.612 401.57246 105.39648 398.3418 C 109.27327 395.01884 113.97932 393.35742 119.51758 393.35742 z M 358.19336 394.18945 C 364.56237 394.18945 369.77846 396.31257 373.83984 400.55859 C 377.99354 404.80459 380.07031 410.38771 380.07031 417.31055 C 380.07031 424.23336 377.99354 429.81846 373.83984 434.06445 C 369.77846 438.31048 364.56237 440.43359 358.19336 440.43359 C 354.03966 440.43359 350.30148 439.51016 346.97852 437.66406 C 343.65555 435.72567 341.02431 433.00365 339.08594 429.49609 C 337.14754 425.98852 336.17969 421.92575 336.17969 417.31055 C 336.17969 412.69532 337.14754 408.63451 339.08594 405.12695 C 341.02431 401.61938 343.65555 398.9418 346.97852 397.0957 C 350.30148 395.15731 354.03966 394.18945 358.19336 394.18945 z M 531.82031 394.18945 C 538.37391 394.18945 543.72716 396.12712 547.88086 400.00391 C 552.12686 403.88069 554.25 408.91131 554.25 415.0957 C 554.25 421.37241 552.12686 426.49576 547.88086 430.46484 C 543.72716 434.34163 538.37391 436.2793 531.82031 436.2793 C 525.17439 436.2793 519.72842 434.34163 515.48242 430.46484 C 511.32872 426.49576 509.25195 421.37241 509.25195 415.0957 C 509.25195 408.91131 511.32872 403.88069 515.48242 400.00391 C 519.72842 396.12712 525.17439 394.18945 531.82031 394.18945 z M 627.12891 394.18945 C 633.49789 394.18945 638.75841 396.31257 642.91211 400.55859 C 647.06581 404.80459 649.14258 410.38771 649.14258 417.31055 C 649.14258 424.23336 647.06581 429.81846 642.91211 434.06445 C 638.75841 438.31048 633.49789 440.43359 627.12891 440.43359 C 620.7599 440.43359 615.49745 438.31048 611.34375 434.06445 C 607.28235 429.81846 605.25195 424.23336 605.25195 417.31055 C 605.25195 410.38771 607.28235 404.80459 611.34375 400.55859 C 615.49745 396.31257 620.7599 394.18945 627.12891 394.18945 z M 439.70703 422.57227 L 457.56836 422.57227 L 457.56836 431.15625 C 456.18382 434.84842 453.78442 437.70954 450.36914 439.74023 C 447.04618 441.67863 443.21525 442.64844 438.87695 442.64844 C 434.44634 442.64844 430.98441 441.725 428.49219 439.87891 C 425.99997 438.03283 424.75391 435.54069 424.75391 432.40234 C 424.75391 425.84872 429.73815 422.57227 439.70703 422.57227 z "
       style="fill:#ffffff;stroke:none;stroke-width:0.389968"
       id="path849" />
    <path
       style="fill:#000000;stroke-width:0.264583"
       id="path847"
       d="" />
  </g>
</svg>
